PathFileType	3	(X/Y/Z)	D:\minhoCalibration\240510\subject2_KPNP\preferred\preferred12.trc
DataRate	CameraRate	NumFrames	NumMarkers	Units	OrigDataRate	OrigDataStartFrame	OrigNumFrames
200.0	200.0	12	10	mm	200.0	229	176	
Frame#	Time	Left_Ankle_Outer1			Left_Ankle_Inner1			Left_Knee_Outer1			Left_Knee_Inner1			Left_Wrist1			Right_Wrist1			Right_Knee_Inner1			Right_Knee_Outer1			Right_Ankle_Inner1			Right_Ankle_Outer1			
		X1	Y1	Z1	X2	Y2	Z2	X3	Y3	Z3	X4	Y4	Z4	X5	Y5	Z5	X6	Y6	Z6	X7	Y7	Z7	X8	Y8	Z8	X9	Y9	Z9	X10	Y10	Z10	
229	1.135	-652.24329	116.40388	-700.54974	-650.02167	129.39696	-645.18219	-446.15698	515.53656	-785.23615	-443.73471	500.1254	-687.03815	-549.98169	967.40344	-848.37524	-639.07843	1130.0854	-550.69611	-582.87628	821.71295	-152.00966	-622.9801	918.95404	-142.1368	-900.23169	751.03461	-429.36707	-944.58197	832.99609	-394.08768
230	1.14	-650.17279	118.0242	-699.63287	-646.80322	130.58383	-645.71143	-447.18369	516.72766	-788.56812	-438.8504	501.04767	-692.02435	-557.57117	964.93536	-848.23016	-631.78125	1133.6036	-549.38806	-559.15704	836.86804	-147.30421	-595.09833	935.27203	-138.41452	-899.70477	764.1394	-395.67245	-938.48956	849.16577	-360.97443
231	1.145	-648.21198	119.60621	-699.19562	-644.74573	134.77672	-641.71204	-448.53873	518.10706	-791.05743	-434.88489	502.36649	-696.45837	-565.14484	962.43896	-847.78271	-625.63733	1136.7986	-548.48706	-535.73755	851.62457	-144.28241	-567.66553	950.63409	-137.01128	-896.63141	776.56195	-362.46814	-930.96869	864.28485	-329.61554
232	1.15	-646.5838	121.33866	-699.21509	-642.29242	134.62239	-643.83936	-449.78543	519.73578	-793.14215	-432.08191	504.04572	-699.7226	-573.00562	959.61237	-846.76471	-618.95392	1139.8542	-547.44397	-512.84082	865.94769	-142.562	-541.00989	965.29889	-137.31912	-893.64465	790.00507	-324.14493	-922.49146	880.38904	-293.16
233	1.155	-645.20154	122.6013	-699.32965	-640.07953	135.34419	-645.328	-451.89233	521.09937	-793.73352	-430.49857	505.85275	-701.56989	-581.04895	956.31244	-845.13873	-613.70013	1142.428	-547.1377	-490.7226	879.69672	-142.22656	-515.263	979.0473	-139.62503	-888.85938	803.64612	-282.64401	-912.57617	896.4632	-254.52399
234	1.16	-644.06635	123.59431	-699.45795	-638.63287	137.28185	-644.84851	-452.75986	523.02618	-794.53357	-429.90796	507.87936	-702.20984	-588.27734	953.66284	-843.35266	-608.23364	1144.7914	-546.86603	-469.24164	892.69067	-143.49193	-490.95154	991.40448	-143.70737	-880.61926	817.39203	-241.00327	-900.04834	912.20001	-216.19267
235	1.165	-643.4306	124.31525	-699.74854	-638.44202	138.09874	-644.70386	-453.85922	524.68872	-794.16095	-430.25601	509.62448	-701.50049	-595.7251	950.5365	-840.86963	-602.6214	1147.0131	-546.7453	-448.88538	904.8183	-146.40582	-467.99072	1002.3752	-149.47159	-869.43439	831.90967	-197.39261	-885.10565	928.34637	-176.23906
236	1.17	-643.05493	124.77338	-700.04333	-638.1355	138.48419	-645.04474	-455.11832	526.06573	-792.87994	-431.51202	511.16132	-699.78186	-602.99023	947.55353	-838.04584	-597.46375	1148.9575	-546.85559	-429.92889	915.56232	-150.01369	-447.11414	1012.0636	-156.36327	-854.68536	846.54938	-152.4921	-867.3504	944.33246	-135.61717
237	1.175	-642.91931	124.8317	-700.2644	-638.14618	139.26791	-644.07172	-456.00659	527.49945	-791.16162	-433.60193	512.34351	-697.14838	-609.90369	944.68872	-834.76605	-592.83832	1150.7389	-547.07941	-412.61691	924.92493	-154.38976	-428.51227	1020.219	-163.78496	-836.15863	861.51245	-107.19607	-846.5307	960.27527	-94.505066
238	1.18	-643.00372	124.5044	-700.14343	-638.11438	137.317	-646.42426	-456.52637	529.15497	-788.94531	-436.22778	513.35327	-693.96277	-616.40808	942.0849	-831.27429	-588.36218	1152.4062	-547.51935	-397.22797	932.79443	-159.58647	-412.05536	1026.7208	-171.9192	-813.52612	877.4942	-61.399635	-821.96521	976.95123	-52.880192
239	1.185	-643.41382	124.00815	-699.69452	-638.9444	136.77763	-645.54254	-457.46463	530.43036	-785.83411	-439.24368	513.94507	-690.23407	-622.26764	939.73932	-827.58868	-584.16724	1154.1112	-547.97217	-384.46744	939.18909	-164.82266	-397.90692	1032.1416	-179.94176	-787.26239	893.38953	-17.109219	-793.94196	993.53009	-11.281942
240	1.19	-643.96704	123.5751	-698.93842	-639.84802	137.84674	-642.24487	-458.53329	531.35992	-782.11346	-442.51666	514.19482	-686.11761	-627.37561	937.71771	-823.93921	-581.0545	1155.4541	-548.67285	-373.1644	944.42609	-170.95856	-386.40768	1036.4679	-187.37199	-756.77759	909.22241	25.196339	-761.57458	1010.0522	29.374985
